<?xml version="1.0" encoding="utf-8" standalone="no"?>
<!DOCTYPE svg PUBLIC "-//W3C//DTD SVG 1.1//EN"
  "http://www.w3.org/Graphics/SVG/1.1/DTD/svg11.dtd">
<svg xmlns:xlink="http://www.w3.org/1999/xlink" width="460.8pt" height="345.6pt" viewBox="0 0 460.8 345.6" xmlns="http://www.w3.org/2000/svg" version="1.1">
 <metadata>
  <rdf:RDF xmlns:dc="http://purl.org/dc/elements/1.1/" xmlns:cc="http://creativecommons.org/ns#" xmlns:rdf="http://www.w3.org/1999/02/22-rdf-syntax-ns#">
   <cc:Work>
    <dc:type rdf:resource="http://purl.org/dc/dcmitype/StillImage"/>
    <dc:date>2023-09-23T00:18:01.664752</dc:date>
    <dc:format>image/svg+xml</dc:format>
    <dc:creator>
     <cc:Agent>
      <dc:title>Matplotlib v3.8.0, https://matplotlib.org/</dc:title>
     </cc:Agent>
    </dc:creator>
   </cc:Work>
  </rdf:RDF>
 </metadata>
 <defs>
  <style type="text/css">*{stroke-linejoin: round; stroke-linecap: butt}</style>
 </defs>
 <g id="figure_1">
  <g id="patch_1">
   <path d="M 0 345.6 
L 460.8 345.6 
L 460.8 0 
L 0 0 
z
" style="fill: #ffffff"/>
  </g>
  <g id="axes_1">
   <g id="patch_2">
    <path d="M 94.876795 304.128 
L 365.923205 304.128 
L 365.923205 41.472 
L 94.876795 41.472 
z
" style="fill: #ffffff"/>
   </g>
   <g id="matplotlib.axis_1">
    <g id="xtick_1">
     <g id="line2d_1">
      <path d="M 99.901095 304.128 
L 99.901095 41.472 
" clip-path="url(#p93e80ac395)" style="fill: none; stroke: #a0a0a0; stroke-linecap: square"/>
     </g>
     <g id="line2d_2">
      <defs>
       <path id="m6c9f6a9fd7" d="M 0 0 
L 0 3.5 
" style="stroke: #000000; stroke-width: 0.8"/>
      </defs>
      <g>
       <use xlink:href="#m6c9f6a9fd7" x="99.901095" y="304.128" style="stroke: #000000; stroke-width: 0.8"/>
      </g>
     </g>
     <g id="text_1">
      <!-- −5 -->
      <g transform="translate(88.844455 322.525656) scale(0.15 -0.15)">
       <defs>
        <path id="DejaVuSans-2212" d="M 678 2272 
L 4684 2272 
L 4684 1741 
L 678 1741 
L 678 2272 
z
" transform="scale(0.015625)"/>
        <path id="DejaVuSans-35" d="M 691 4666 
L 3169 4666 
L 3169 4134 
L 1269 4134 
L 1269 2991 
Q 1406 3038 1543 3061 
Q 1681 3084 1819 3084 
Q 2600 3084 3056 2656 
Q 3513 2228 3513 1497 
Q 3513 744 3044 326 
Q 2575 -91 1722 -91 
Q 1428 -91 1123 -41 
Q 819 9 494 109 
L 494 744 
Q 775 591 1075 516 
Q 1375 441 1709 441 
Q 2250 441 2565 725 
Q 2881 1009 2881 1497 
Q 2881 1984 2565 2268 
Q 2250 2553 1709 2553 
Q 1456 2553 1204 2497 
Q 953 2441 691 2322 
L 691 4666 
z
" transform="scale(0.015625)"/>
       </defs>
       <use xlink:href="#DejaVuSans-2212"/>
       <use xlink:href="#DejaVuSans-35" x="83.789062"/>
      </g>
     </g>
    </g>
    <g id="xtick_2">
     <g id="line2d_3">
      <path d="M 174.519277 304.128 
L 174.519277 41.472 
" clip-path="url(#p93e80ac395)" style="fill: none; stroke: #a0a0a0; stroke-linecap: square"/>
     </g>
     <g id="line2d_4">
      <g>
       <use xlink:href="#m6c9f6a9fd7" x="174.519277" y="304.128" style="stroke: #000000; stroke-width: 0.8"/>
      </g>
     </g>
     <g id="text_2">
      <!-- 0 -->
      <g transform="translate(169.747402 322.525656) scale(0.15 -0.15)">
       <defs>
        <path id="DejaVuSans-30" d="M 2034 4250 
Q 1547 4250 1301 3770 
Q 1056 3291 1056 2328 
Q 1056 1369 1301 889 
Q 1547 409 2034 409 
Q 2525 409 2770 889 
Q 3016 1369 3016 2328 
Q 3016 3291 2770 3770 
Q 2525 4250 2034 4250 
z
M 2034 4750 
Q 2819 4750 3233 4129 
Q 3647 3509 3647 2328 
Q 3647 1150 3233 529 
Q 2819 -91 2034 -91 
Q 1250 -91 836 529 
Q 422 1150 422 2328 
Q 422 3509 836 4129 
Q 1250 4750 2034 4750 
z
" transform="scale(0.015625)"/>
       </defs>
       <use xlink:href="#DejaVuSans-30"/>
      </g>
     </g>
    </g>
    <g id="xtick_3">
     <g id="line2d_5">
      <path d="M 249.137459 304.128 
L 249.137459 41.472 
" clip-path="url(#p93e80ac395)" style="fill: none; stroke: #a0a0a0; stroke-linecap: square"/>
     </g>
     <g id="line2d_6">
      <g>
       <use xlink:href="#m6c9f6a9fd7" x="249.137459" y="304.128" style="stroke: #000000; stroke-width: 0.8"/>
      </g>
     </g>
     <g id="text_3">
      <!-- 5 -->
      <g transform="translate(244.365584 322.525656) scale(0.15 -0.15)">
       <use xlink:href="#DejaVuSans-35"/>
      </g>
     </g>
    </g>
    <g id="xtick_4">
     <g id="line2d_7">
      <path d="M 323.755641 304.128 
L 323.755641 41.472 
" clip-path="url(#p93e80ac395)" style="fill: none; stroke: #a0a0a0; stroke-linecap: square"/>
     </g>
     <g id="line2d_8">
      <g>
       <use xlink:href="#m6c9f6a9fd7" x="323.755641" y="304.128" style="stroke: #000000; stroke-width: 0.8"/>
      </g>
     </g>
     <g id="text_4">
      <!-- 10 -->
      <g transform="translate(314.211891 322.525656) scale(0.15 -0.15)">
       <defs>
        <path id="DejaVuSans-31" d="M 794 531 
L 1825 531 
L 1825 4091 
L 703 3866 
L 703 4441 
L 1819 4666 
L 2450 4666 
L 2450 531 
L 3481 531 
L 3481 0 
L 794 0 
L 794 531 
z
" transform="scale(0.015625)"/>
       </defs>
       <use xlink:href="#DejaVuSans-31"/>
       <use xlink:href="#DejaVuSans-30" x="63.623047"/>
      </g>
     </g>
    </g>
    <g id="text_5">
     <!-- $x$ -->
     <g transform="translate(225.9 341.042844) scale(0.15 -0.15)">
      <defs>
       <path id="DejaVuSans-Oblique-78" d="M 3841 3500 
L 2234 1784 
L 3219 0 
L 2559 0 
L 1819 1388 
L 531 0 
L -166 0 
L 1556 1844 
L 641 3500 
L 1300 3500 
L 1972 2234 
L 3144 3500 
L 3841 3500 
z
" transform="scale(0.015625)"/>
      </defs>
      <use xlink:href="#DejaVuSans-Oblique-78" transform="translate(0 0.3125)"/>
     </g>
    </g>
   </g>
   <g id="matplotlib.axis_2">
    <g id="ytick_1">
     <g id="line2d_9">
      <path d="M 94.876795 269.803636 
L 365.923205 269.803636 
" clip-path="url(#p93e80ac395)" style="fill: none; stroke: #a0a0a0; stroke-linecap: square"/>
     </g>
     <g id="line2d_10">
      <defs>
       <path id="m8f25ced325" d="M 0 0 
L -3.5 0 
" style="stroke: #000000; stroke-width: 0.8"/>
      </defs>
      <g>
       <use xlink:href="#m8f25ced325" x="94.876795" y="269.803636" style="stroke: #000000; stroke-width: 0.8"/>
      </g>
     </g>
     <g id="text_6">
      <!-- −2.5 -->
      <g transform="translate(51.452576 275.502464) scale(0.15 -0.15)">
       <defs>
        <path id="DejaVuSans-32" d="M 1228 531 
L 3431 531 
L 3431 0 
L 469 0 
L 469 531 
Q 828 903 1448 1529 
Q 2069 2156 2228 2338 
Q 2531 2678 2651 2914 
Q 2772 3150 2772 3378 
Q 2772 3750 2511 3984 
Q 2250 4219 1831 4219 
Q 1534 4219 1204 4116 
Q 875 4013 500 3803 
L 500 4441 
Q 881 4594 1212 4672 
Q 1544 4750 1819 4750 
Q 2544 4750 2975 4387 
Q 3406 4025 3406 3419 
Q 3406 3131 3298 2873 
Q 3191 2616 2906 2266 
Q 2828 2175 2409 1742 
Q 1991 1309 1228 531 
z
" transform="scale(0.015625)"/>
        <path id="DejaVuSans-2e" d="M 684 794 
L 1344 794 
L 1344 0 
L 684 0 
L 684 794 
z
" transform="scale(0.015625)"/>
       </defs>
       <use xlink:href="#DejaVuSans-2212"/>
       <use xlink:href="#DejaVuSans-32" x="83.789062"/>
       <use xlink:href="#DejaVuSans-2e" x="147.412109"/>
       <use xlink:href="#DejaVuSans-35" x="179.199219"/>
      </g>
     </g>
    </g>
    <g id="ytick_2">
     <g id="line2d_11">
      <path d="M 94.876795 232.494545 
L 365.923205 232.494545 
" clip-path="url(#p93e80ac395)" style="fill: none; stroke: #a0a0a0; stroke-linecap: square"/>
     </g>
     <g id="line2d_12">
      <g>
       <use xlink:href="#m8f25ced325" x="94.876795" y="232.494545" style="stroke: #000000; stroke-width: 0.8"/>
      </g>
     </g>
     <g id="text_7">
      <!-- 0.0 -->
      <g transform="translate(64.022108 238.193374) scale(0.15 -0.15)">
       <use xlink:href="#DejaVuSans-30"/>
       <use xlink:href="#DejaVuSans-2e" x="63.623047"/>
       <use xlink:href="#DejaVuSans-30" x="95.410156"/>
      </g>
     </g>
    </g>
    <g id="ytick_3">
     <g id="line2d_13">
      <path d="M 94.876795 195.185455 
L 365.923205 195.185455 
" clip-path="url(#p93e80ac395)" style="fill: none; stroke: #a0a0a0; stroke-linecap: square"/>
     </g>
     <g id="line2d_14">
      <g>
       <use xlink:href="#m8f25ced325" x="94.876795" y="195.185455" style="stroke: #000000; stroke-width: 0.8"/>
      </g>
     </g>
     <g id="text_8">
      <!-- 2.5 -->
      <g transform="translate(64.022108 200.884283) scale(0.15 -0.15)">
       <use xlink:href="#DejaVuSans-32"/>
       <use xlink:href="#DejaVuSans-2e" x="63.623047"/>
       <use xlink:href="#DejaVuSans-35" x="95.410156"/>
      </g>
     </g>
    </g>
    <g id="ytick_4">
     <g id="line2d_15">
      <path d="M 94.876795 157.876364 
L 365.923205 157.876364 
" clip-path="url(#p93e80ac395)" style="fill: none; stroke: #a0a0a0; stroke-linecap: square"/>
     </g>
     <g id="line2d_16">
      <g>
       <use xlink:href="#m8f25ced325" x="94.876795" y="157.876364" style="stroke: #000000; stroke-width: 0.8"/>
      </g>
     </g>
     <g id="text_9">
      <!-- 5.0 -->
      <g transform="translate(64.022108 163.575192) scale(0.15 -0.15)">
       <use xlink:href="#DejaVuSans-35"/>
       <use xlink:href="#DejaVuSans-2e" x="63.623047"/>
       <use xlink:href="#DejaVuSans-30" x="95.410156"/>
      </g>
     </g>
    </g>
    <g id="ytick_5">
     <g id="line2d_17">
      <path d="M 94.876795 120.567273 
L 365.923205 120.567273 
" clip-path="url(#p93e80ac395)" style="fill: none; stroke: #a0a0a0; stroke-linecap: square"/>
     </g>
     <g id="line2d_18">
      <g>
       <use xlink:href="#m8f25ced325" x="94.876795" y="120.567273" style="stroke: #000000; stroke-width: 0.8"/>
      </g>
     </g>
     <g id="text_10">
      <!-- 7.5 -->
      <g transform="translate(64.022108 126.266101) scale(0.15 -0.15)">
       <defs>
        <path id="DejaVuSans-37" d="M 525 4666 
L 3525 4666 
L 3525 4397 
L 1831 0 
L 1172 0 
L 2766 4134 
L 525 4134 
L 525 4666 
z
" transform="scale(0.015625)"/>
       </defs>
       <use xlink:href="#DejaVuSans-37"/>
       <use xlink:href="#DejaVuSans-2e" x="63.623047"/>
       <use xlink:href="#DejaVuSans-35" x="95.410156"/>
      </g>
     </g>
    </g>
    <g id="ytick_6">
     <g id="line2d_19">
      <path d="M 94.876795 83.258182 
L 365.923205 83.258182 
" clip-path="url(#p93e80ac395)" style="fill: none; stroke: #a0a0a0; stroke-linecap: square"/>
     </g>
     <g id="line2d_20">
      <g>
       <use xlink:href="#m8f25ced325" x="94.876795" y="83.258182" style="stroke: #000000; stroke-width: 0.8"/>
      </g>
     </g>
     <g id="text_11">
      <!-- 10.0 -->
      <g transform="translate(54.478358 88.95701) scale(0.15 -0.15)">
       <use xlink:href="#DejaVuSans-31"/>
       <use xlink:href="#DejaVuSans-30" x="63.623047"/>
       <use xlink:href="#DejaVuSans-2e" x="127.246094"/>
       <use xlink:href="#DejaVuSans-30" x="159.033203"/>
      </g>
     </g>
    </g>
    <g id="ytick_7">
     <g id="line2d_21">
      <path d="M 94.876795 45.949091 
L 365.923205 45.949091 
" clip-path="url(#p93e80ac395)" style="fill: none; stroke: #a0a0a0; stroke-linecap: square"/>
     </g>
     <g id="line2d_22">
      <g>
       <use xlink:href="#m8f25ced325" x="94.876795" y="45.949091" style="stroke: #000000; stroke-width: 0.8"/>
      </g>
     </g>
     <g id="text_12">
      <!-- 12.5 -->
      <g transform="translate(54.478358 51.647919) scale(0.15 -0.15)">
       <use xlink:href="#DejaVuSans-31"/>
       <use xlink:href="#DejaVuSans-32" x="63.623047"/>
       <use xlink:href="#DejaVuSans-2e" x="127.246094"/>
       <use xlink:href="#DejaVuSans-35" x="159.033203"/>
      </g>
     </g>
    </g>
    <g id="text_13">
     <!-- $y$ -->
     <g transform="translate(42.952576 169.65) scale(0.15 -0.15)">
      <defs>
       <path id="DejaVuSans-Oblique-79" d="M 1588 -325 
Q 1188 -997 936 -1164 
Q 684 -1331 294 -1331 
L -159 -1331 
L -63 -850 
L 269 -850 
Q 509 -850 678 -719 
Q 847 -588 1056 -206 
L 1234 128 
L 459 3500 
L 1069 3500 
L 1650 819 
L 3256 3500 
L 3859 3500 
L 1588 -325 
z
" transform="scale(0.015625)"/>
      </defs>
      <use xlink:href="#DejaVuSans-Oblique-79" transform="translate(0 0.3125)"/>
     </g>
    </g>
   </g>
   <g id="line2d_23">
    <path d="M 294.318245 54.392166 
L 256.987748 63.391008 
L 226.572408 73.277529 
L 201.376919 83.937248 
L 180.338337 95.247854 
L 162.756125 107.080882 
L 148.146651 119.303456 
L 136.160014 131.780091 
L 126.530225 144.374515 
L 119.04424 156.951478 
L 113.522172 169.378538 
L 109.804417 181.527786 
L 107.743204 193.277486 
L 107.197086 204.513611 
L 108.027447 215.131251 
L 110.096396 225.035867 
L 113.265684 234.144388 
L 117.396337 242.386123 
L 122.34883 249.703482 
L 127.983648 256.052495 
L 134.162124 261.403134 
L 140.747476 265.739413 
L 147.605965 269.059294 
L 154.608121 271.374388 
L 161.629987 272.709451 
L 168.554349 273.101713 
L 175.271899 272.600017 
L 181.682317 271.263818 
L 187.695244 269.162031 
L 193.231114 266.371771 
L 198.221846 262.976987 
L 202.611362 259.067032 
L 206.35594 254.735172 
L 209.42439 250.077075 
L 211.798035 245.189298 
L 213.470533 240.16779 
L 214.447508 235.106442 
L 214.746016 230.095706 
L 214.393862 225.221299 
L 213.428758 220.563008 
L 211.897365 216.193627 
L 209.854214 212.178023 
L 207.360537 208.572359 
L 204.483022 205.423469 
L 201.292518 202.768403 
L 197.862712 200.63414 
L 194.268785 199.037478 
L 190.586101 197.985081 
L 186.888906 197.473703 
L 183.249103 197.490563 
L 179.735086 198.013871 
L 176.410669 199.013489 
L 173.334124 200.451711 
L 170.557334 202.284158 
L 168.125078 204.460755 
L 166.074463 206.92678 
L 164.434491 209.623968 
L 163.225789 212.491642 
L 162.460483 215.467862 
L 162.142222 218.490561 
L 162.266356 221.498654 
L 162.820248 224.433109 
L 163.783719 227.237941 
L 165.129618 229.861145 
L 166.824496 232.255517 
L 168.829379 234.379387 
L 171.100615 236.197224 
L 173.59079 237.680124 
L 176.249684 238.806164 
L 179.025257 239.560626 
L 181.864643 239.936085 
L 184.715137 239.932364 
L 187.525154 239.556361 
L 190.24515 238.821752 
L 192.828482 237.748578 
L 195.232197 236.362725 
L 197.417735 234.695314 
L 199.351544 232.782002 
L 201.005577 230.662223 
L 202.357692 228.378373 
L 203.39193 225.974959 
L 204.09867 223.497726 
L 204.47467 220.992784 
L 204.522992 218.505741 
L 204.252806 216.080869 
L 203.679091 213.760304 
L 202.822235 211.58331 
L 201.707538 209.585602 
L 200.364646 207.798759 
L 198.8269 206.249711 
L 197.130644 204.960335 
L 195.314481 203.947145 
L 193.418507 203.221086 
L 191.48353 202.787445 
L 189.550289 202.645854 
L 187.658692 202.790413 
L 185.847081 203.209899 
L 184.151542 203.888086 
L 182.605267 204.804139 
L 181.237984 205.933091 
L 180.075457 207.246395 
L 179.139081 208.712522 
L 178.445547 210.297613 
L 178.00662 211.966156 
L 177.829 213.681693 
L 177.914284 215.40752 
L 178.259029 217.107385 
L 178.854901 218.74617 
L 179.688918 220.290533 
L 180.743776 221.709511 
L 181.998248 222.975066 
L 183.427653 224.062564 
L 185.004384 224.951193 
L 186.698474 225.624288 
L 188.478212 226.069582 
L 190.310766 226.279368 
L 192.162828 226.250571 
L 194.001255 225.984733 
L 195.793696 225.48791 
L 197.509196 224.770487 
L 199.118762 223.846912 
L 200.595882 222.735354 
L 201.916999 221.457309 
L 203.061908 220.03713 
L 204.014092 218.501525 
L 204.760984 216.879011 
L 205.294144 215.199343 
L 205.609361 213.492928 
L 205.70667 211.790236 
L 205.590291 210.121217 
L 205.268486 208.514733 
L 204.753343 206.99803 
L 204.060492 205.596233 
L 203.208754 204.331899 
L 202.219736 203.224625 
L 201.117381 202.290708 
L 199.927475 201.542884 
L 198.677131 200.990134 
L 197.394247 200.637559 
L 196.106966 200.486341 
L 194.843133 200.533768 
L 193.629763 200.773343 
L 192.492536 201.194956 
L 191.455323 201.785128 
L 190.539753 202.527311 
L 189.764825 203.402248 
L 189.146581 204.388377 
L 188.697833 205.462272 
L 188.427964 206.599122 
L 188.342785 207.773219 
L 188.444476 208.958466 
L 188.731584 210.128881 
L 189.199099 211.259096 
L 189.838595 212.324838 
L 190.638433 213.303377 
L 191.584026 214.173948 
L 192.658153 214.918125 
L 193.841322 215.520146 
L 195.112177 215.967182 
L 196.447923 216.249554 
L 197.82479 216.360876 
L 199.218494 216.29814 
L 200.604717 216.061736 
L 201.959569 215.655403 
L 203.26005 215.086117 
L 204.484476 214.363923 
L 205.612883 213.501701 
L 206.627393 212.514889 
L 207.512533 211.421156 
L 208.255509 210.240036 
L 208.846417 208.992529 
L 209.278403 207.700685 
L 209.547766 206.387162 
L 209.653986 205.074784 
L 209.599706 203.786102 
L 209.390642 202.542959 
L 209.035443 201.366079 
L 208.545488 200.274678 
L 207.93464 199.286109 
L 207.218951 198.415552 
L 206.416331 197.675739 
L 205.546179 197.076734 
L 204.628995 196.625775 
L 203.685974 196.327154 
L 202.738589 196.182171 
L 201.808172 196.18914 
L 200.915504 196.343449 
L 200.080424 196.637683 
L 199.321448 197.061793 
L 198.655432 197.603318 
L 198.097258 198.247651 
L 197.659572 198.978342 
L 197.352556 199.777433 
L 197.18376 200.625823 
L 197.157982 201.503645 
L 197.277202 202.390661 
L 197.540571 203.266652 
L 197.944454 204.111813 
L 198.482532 204.90713 
L 199.145945 205.634741 
L 199.92349 206.278266 
L 200.801861 206.823115 
L 201.765925 207.25675 
L 202.799032 207.568908 
L 203.883354 207.751778 
L 205.000236 207.80013 
L 206.130569 207.71139 
L 207.255162 207.485667 
L 208.355113 207.125725 
L 209.412176 206.636904 
L 210.409103 206.026995 
L 211.329971 205.306064 
L 212.160479 204.486241 
L 212.888208 203.581459 
L 213.502845 202.607176 
L 213.996364 201.580058 
L 214.363163 200.517646 
L 214.600144 199.438007 
L 214.706759 198.359384 
L 214.684992 197.299836 
L 214.539303 196.276894 
L 214.276514 195.307224 
L 213.905663 194.406312 
L 213.437803 193.588175 
L 212.885777 192.865102 
L 212.263949 192.24743 
L 211.587913 191.743363 
L 210.874183 191.358828 
L 210.139865 191.097382 
L 209.402316 190.960161 
L 208.678813 190.945882 
L 207.986211 191.050884 
L 207.340627 191.269222 
L 206.757127 191.592799 
L 206.249449 192.011543 
L 205.829743 192.513617 
L 205.508352 193.085665 
L 205.293624 193.713078 
L 205.191767 194.380295 
L 205.206747 195.071108 
L 205.340228 195.76898 
L 205.591558 196.457375 
L 205.957803 197.120069 
L 206.433819 197.741472 
L 207.012371 198.306917 
L 207.68429 198.802942 
L 208.438665 199.217543 
L 209.263071 199.540388 
L 210.143817 199.763012 
L 211.066227 199.878963 
L 212.014929 199.883911 
L 212.97416 199.775719 
L 213.928073 199.554462 
L 214.861049 199.222414 
L 215.757994 198.783984 
L 216.60463 198.245614 
L 218.095544 196.904113 
L 219.245564 195.283929 
L 219.99406 193.491264 
L 220.312262 191.644036 
L 220.204999 189.862626 
L 219.709831 188.26057 
L 218.893686 186.935919 
L 217.847272 185.963913 
L 216.677757 185.391512 
L 215.500272 185.234185 
L 214.428933 185.475161 
L 213.568061 186.067182 
L 213.004284 186.936563 
L 212.800101 187.989242 
L 212.989406 189.118308 
L 213.575262 190.21242 
L 214.530085 191.164447 
L 215.798186 191.879668 
L 217.300441 192.282914 
L 218.940706 192.3241 
L 220.613451 191.981754 
L 222.21203 191.264295 
L 223.636913 190.209 
L 224.803274 188.878745 
L 225.647345 187.35683 
L 226.131064 185.740291 
L 226.244686 184.132235 
L 226.007172 182.633811 
L 225.46437 181.336428 
L 224.685137 180.314825 
L 223.755743 179.621505 
L 222.772991 179.282965 
L 221.836625 179.297963 
L 221.041584 179.637955 
L 220.470742 180.249632 
L 220.188645 181.05933 
L 220.236756 181.978963 
L 220.630523 182.912996 
L 221.358495 183.765912 
L 222.383523 184.449586 
L 223.645931 184.890005 
L 225.068387 185.03282 
L 226.562076 184.847318 
L 228.0337 184.32852 
L 229.392729 183.497274 
L 230.55837 182.398348 
L 231.465692 181.096705 
L 232.070472 179.67225 
L 232.352373 178.213498 
L 232.316256 176.810631 
L 231.991523 175.548512 
L 231.429575 174.500189 
L 230.699599 173.721375 
L 229.883027 173.24633 
L 229.067112 173.085448 
L 228.338115 173.224708 
L 227.774656 173.627022 
L 227.441707 174.235341 
L 227.385723 174.977286 
L 227.63124 175.770899 
L 228.17921 176.53108 
L 229.007171 177.176204 
L 230.071229 177.634395 
L 231.309672 177.84898 
L 232.647925 177.782722 
L 234.00445 177.420496 
L 235.297122 176.770236 
L 236.449587 175.862089 
L 237.397109 174.745859 
L 238.091464 173.48696 
L 238.5045 172.161195 
L 238.630124 170.848795 
L 238.484548 169.628167 
L 238.104821 168.569844 
L 237.545758 167.731108 
L 236.875526 167.151683 
L 236.170239 166.850835 
L 235.507995 166.826075 
L 234.962813 167.053563 
L 234.598942 167.490153 
L 234.465983 168.076918 
L 234.595191 168.743856 
L 234.997224 169.415417 
L 235.661514 170.016395 
L 236.557282 170.477751 
L 237.636106 170.741898 
L 238.835834 170.767053 
L 240.085521 170.530324 
L 241.310998 170.029313 
L 242.440645 169.282114 
L 243.410915 168.325724 
L 244.171177 167.213011 
L 244.68752 166.00848 
L 244.945232 164.783169 
L 244.949766 163.6091 
L 244.72614 162.553682 
L 244.316827 161.674544 
L 243.778312 161.01515 
L 243.1766 160.601561 
L 242.582014 160.440567 
L 242.063721 160.519329 
L 241.684377 160.806542 
L 241.495336 161.255019 
L 241.532768 161.80548 
L 241.814986 162.391247 
L 242.34118 162.943471 
L 243.091641 163.396483 
L 244.029447 163.692855 
L 245.103465 163.787776 
L 246.252436 163.652421 
L 247.409795 163.276051 
L 248.508881 162.666692 
L 249.488095 161.850364 
L 250.295636 160.868913 
L 250.893429 159.776641 
L 251.259967 158.635999 
L 251.39184 157.512683 
L 251.303855 156.470514 
L 251.027744 155.566511 
L 250.609565 154.846529 
L 250.106023 154.341791 
L 249.579991 154.066589 
L 249.095587 154.017307 
L 248.713198 154.172843 
L 248.484829 154.496385 
L 248.450139 154.938381 
L 248.633463 155.440484 
L 249.042044 155.940137 
L 249.665607 156.375455 
L 250.477287 156.69002 
L 251.435838 156.837207 
L 252.488945 156.783723 
L 253.577355 156.512089 
L 254.63953 156.021874 
L 255.616428 155.329595 
L 256.456064 154.467318 
L 257.117487 153.480048 
L 257.573869 152.422146 
L 257.814482 151.353049 
L 257.84541 150.33262 
L 257.688953 149.416506 
L 257.381777 148.651856 
L 256.971971 148.073728 
L 256.51523 147.702459 
L 256.070484 147.542194 
L 255.695306 147.580684 
L 255.441459 147.790355 
L 255.350923 148.130553 
L 255.452711 148.550793 
L 255.760711 148.994742 
L 256.272719 149.404628 
L 256.970723 149.725733 
L 257.822411 149.910609 
L 258.783778 149.922711 
L 259.80262 149.73915 
L 260.822641 149.352377 
L 261.787844 148.770657 
L 262.646873 148.017319 
L 263.356966 147.128846 
L 263.887206 146.15195 
L 264.220843 145.139883 
L 264.356492 144.14826 
L 264.308138 143.230732 
L 264.103945 142.434833 
L 263.783976 141.798345 
L 263.195082 141.193599 
L 262.637313 141.023723 
L 262.369691 141.129083 
L 262.237136 141.37333 
L 262.272201 141.713423 
L 262.494223 142.099168 
L 262.907903 142.477162 
L 263.50304 142.794954 
L 264.255421 143.005108 
L 265.128792 143.06885 
L 266.077743 142.959017 
L 267.051298 142.662096 
L 267.996899 142.179173 
L 268.864499 141.525764 
L 269.610423 140.730513 
L 270.200718 139.832887 
L 270.613726 138.880047 
L 270.841685 137.923136 
L 270.89124 137.01329 
L 270.67918 135.837937 
L 270.232017 134.996668 
L 269.706736 134.554421 
L 269.272363 134.506525 
L 269.109757 134.660192 
L 269.091024 134.921925 
L 269.239901 135.247568 
L 269.566973 135.588277 
L 270.068927 135.89434 
L 270.728898 136.119035 
L 271.517861 136.222244 
L 272.396952 136.173518 
L 273.320551 135.954388 
L 274.239855 135.559723 
L 275.106692 134.998046 
L 275.877249 134.290793 
L 276.515451 133.470572 
L 276.995709 132.578565 
L 277.304848 131.66128 
L 277.443055 130.766913 
L 277.362668 129.567794 
L 277.025281 128.651357 
L 276.568989 128.096221 
L 276.151248 127.917817 
L 275.92147 128.066267 
L 275.931838 128.296273 
L 276.246333 128.734546 
L 276.932606 129.146433 
L 277.946191 129.383415 
L 278.755845 129.384503 
L 279.626745 129.232258 
L 280.514092 128.916192 
L 281.372066 128.438594 
L 282.157383 127.814285 
L 282.832647 127.069389 
L 283.369212 126.239248 
L 283.749362 125.365626 
L 284.017795 124.071897 
L 283.958977 122.927681 
L 283.663277 122.052288 
L 283.261313 121.517523 
L 282.901014 121.335661 
L 282.72189 121.457805 
L 282.830962 121.782851 
L 283.284507 122.175401 
L 284.078736 122.48947 
L 285.150931 122.59383 
L 286.39077 122.394601 
L 287.242534 122.070613 
L 288.064312 121.595198 
L 288.815618 120.982899 
L 289.461651 120.258813 
L 290.178272 119.03838 
L 290.556739 117.778654 
L 290.611684 116.620513 
L 290.413623 115.686153 
L 290.076318 115.058082 
L 289.6471 114.738535 
L 289.512976 114.837313 
L 289.653412 115.12301 
L 290.11951 115.467224 
L 290.905607 115.732401 
L 291.950692 115.795715 
L 293.149379 115.570213 
L 294.370487 115.019593 
L 295.47994 114.164113 
L 296.363993 113.076651 
L 296.948769 111.869706 
L 297.212755 110.675628 
L 297.190131 109.623557 
L 296.964447 108.817098 
L 296.554212 108.220516 
L 296.302136 108.156241 
L 296.375505 108.361705 
L 296.747996 108.66033 
L 297.430478 108.922202 
L 298.380071 109.024704 
L 299.507947 108.873695 
L 300.695045 108.419598 
L 301.812898 107.665675 
L 302.745939 106.667078 
L 303.411417 105.52094 
L 303.773501 104.349256 
L 303.849144 103.277591 
L 303.704785 102.41331 
L 303.353157 101.69885 
L 303.087977 101.504311 
L 303.067689 101.525104 
L 303.170579 101.702568 
L 303.558544 101.963859 
L 304.239984 102.185601 
L 305.172414 102.252109 
L 306.270172 102.075371 
L 307.419542 101.610096 
L 308.498639 100.861275 
L 309.398568 99.88297 
L 310.042198 98.768629 
L 310.397302 97.634633 
L 310.481842 96.599995 
L 310.360522 95.765724 
L 310.054196 95.071902 
L 309.837949 94.870911 
L 310.19462 95.188496 
L 310.784629 95.400842 
L 311.630107 95.496041 
L 312.660491 95.380795 
L 313.773646 94.998867 
L 314.853756 94.340574 
L 315.79147 93.444168 
L 316.502808 92.388908 
L 316.943535 91.281061 
L 317.11658 90.235331 
L 317.071222 89.354934 
L 316.824598 88.560132 
L 316.584991 88.230122 
L 316.847797 88.432332 
L 317.579702 88.678558 
L 318.415187 88.742242 
L 319.423752 88.60242 
L 320.507156 88.206997 
L 321.55479 87.548481 
L 322.462923 86.665007 
L 323.152626 85.633453 
L 323.583293 84.555885 
L 323.759447 83.541723 
L 323.687752 82.453281 
L 323.408918 81.702985 
L 323.329502 81.582933 
L 323.515651 81.69561 
L 324.141353 81.91486 
L 324.896914 81.99831 
L 325.84083 81.909016 
L 326.886 81.585882 
L 327.928295 81.008694 
L 328.86469 80.201375 
L 329.611116 79.227588 
L 330.116908 78.179471 
L 330.373397 77.161507 
L 330.392892 76.01862 
L 330.165282 75.147614 
L 330.071812 74.930164 
L 330.195841 74.97849 
L 330.924204 75.202731 
L 331.968455 75.243453 
L 332.938534 75.060451 
L 333.969502 74.641372 
L 334.959928 73.982579 
L 335.815976 73.121999 
L 336.467621 72.13232 
L 336.880655 71.108195 
L 337.062413 70.149724 
L 337.031678 69.122596 
L 336.812198 68.272498 
L 336.957433 68.305515 
L 337.701929 68.490193 
L 338.738009 68.497739 
L 339.690994 68.295655 
L 340.698704 67.866152 
L 341.663774 67.207299 
L 342.496752 66.35693 
L 343.131563 65.385868 
L 343.536833 64.38548 
L 343.740598 63.170427 
L 343.644151 62.093176 
L 343.550893 61.610512 
L 343.63857 61.610452 
L 344.70103 61.79304 
L 345.804872 61.703575 
L 346.768545 61.413168 
L 347.750129 60.898883 
L 348.656979 60.173419 
L 349.409884 59.286017 
L 349.956728 58.313738 
L 350.281382 57.347958 
L 350.4126 56.223334 
L 350.267914 55.085673 
L 350.328105 54.933778 
L 352.56273 54.955599 
L 353.187878 54.776107 
L 353.187878 54.776107 
" clip-path="url(#p93e80ac395)" style="fill: none; stroke: #ee8d18; stroke-width: 2; stroke-linecap: square"/>
   </g>
   <g id="line2d_24">
    <path d="M 114.824732 292.189091 
L 353.602914 53.410909 
" clip-path="url(#p93e80ac395)" style="fill: none; stroke: #000000; stroke-linecap: square"/>
   </g>
   <g id="patch_3">
    <path d="M 94.876795 304.128 
L 94.876795 41.472 
" style="fill: none; stroke: #000000; stroke-width: 0.8; stroke-linejoin: miter; stroke-linecap: square"/>
   </g>
   <g id="patch_4">
    <path d="M 365.923205 304.128 
L 365.923205 41.472 
" style="fill: none; stroke: #000000; stroke-width: 0.8; stroke-linejoin: miter; stroke-linecap: square"/>
   </g>
   <g id="patch_5">
    <path d="M 94.876795 304.128 
L 365.923205 304.128 
" style="fill: none; stroke: #000000; stroke-width: 0.8; stroke-linejoin: miter; stroke-linecap: square"/>
   </g>
   <g id="patch_6">
    <path d="M 94.876795 41.472 
L 365.923205 41.472 
" style="fill: none; stroke: #000000; stroke-width: 0.8; stroke-linejoin: miter; stroke-linecap: square"/>
   </g>
   <g id="text_14">
    <!-- $x=t+\frac{\cos(nt)}{t}, y=t+\frac{\sin(nt)}{t}, t&gt;0, n = 14$ -->
    <g transform="translate(89.625 35.472) scale(0.15 -0.15)">
     <defs>
      <path id="DejaVuSans-3d" d="M 678 2906 
L 4684 2906 
L 4684 2381 
L 678 2381 
L 678 2906 
z
M 678 1631 
L 4684 1631 
L 4684 1100 
L 678 1100 
L 678 1631 
z
" transform="scale(0.015625)"/>
      <path id="DejaVuSans-Oblique-74" d="M 2706 3500 
L 2619 3053 
L 1472 3053 
L 1100 1153 
Q 1081 1047 1072 975 
Q 1063 903 1063 863 
Q 1063 663 1183 572 
Q 1303 481 1569 481 
L 2150 481 
L 2053 0 
L 1503 0 
Q 991 0 739 200 
Q 488 400 488 806 
Q 488 878 497 964 
Q 506 1050 525 1153 
L 897 3053 
L 409 3053 
L 500 3500 
L 978 3500 
L 1172 4494 
L 1747 4494 
L 1556 3500 
L 2706 3500 
z
" transform="scale(0.015625)"/>
      <path id="DejaVuSans-2b" d="M 2944 4013 
L 2944 2272 
L 4684 2272 
L 4684 1741 
L 2944 1741 
L 2944 0 
L 2419 0 
L 2419 1741 
L 678 1741 
L 678 2272 
L 2419 2272 
L 2419 4013 
L 2944 4013 
z
" transform="scale(0.015625)"/>
      <path id="DejaVuSans-63" d="M 3122 3366 
L 3122 2828 
Q 2878 2963 2633 3030 
Q 2388 3097 2138 3097 
Q 1578 3097 1268 2742 
Q 959 2388 959 1747 
Q 959 1106 1268 751 
Q 1578 397 2138 397 
Q 2388 397 2633 464 
Q 2878 531 3122 666 
L 3122 134 
Q 2881 22 2623 -34 
Q 2366 -91 2075 -91 
Q 1284 -91 818 406 
Q 353 903 353 1747 
Q 353 2603 823 3093 
Q 1294 3584 2113 3584 
Q 2378 3584 2631 3529 
Q 2884 3475 3122 3366 
z
" transform="scale(0.015625)"/>
      <path id="DejaVuSans-6f" d="M 1959 3097 
Q 1497 3097 1228 2736 
Q 959 2375 959 1747 
Q 959 1119 1226 758 
Q 1494 397 1959 397 
Q 2419 397 2687 759 
Q 2956 1122 2956 1747 
Q 2956 2369 2687 2733 
Q 2419 3097 1959 3097 
z
M 1959 3584 
Q 2709 3584 3137 3096 
Q 3566 2609 3566 1747 
Q 3566 888 3137 398 
Q 2709 -91 1959 -91 
Q 1206 -91 779 398 
Q 353 888 353 1747 
Q 353 2609 779 3096 
Q 1206 3584 1959 3584 
z
" transform="scale(0.015625)"/>
      <path id="DejaVuSans-73" d="M 2834 3397 
L 2834 2853 
Q 2591 2978 2328 3040 
Q 2066 3103 1784 3103 
Q 1356 3103 1142 2972 
Q 928 2841 928 2578 
Q 928 2378 1081 2264 
Q 1234 2150 1697 2047 
L 1894 2003 
Q 2506 1872 2764 1633 
Q 3022 1394 3022 966 
Q 3022 478 2636 193 
Q 2250 -91 1575 -91 
Q 1294 -91 989 -36 
Q 684 19 347 128 
L 347 722 
Q 666 556 975 473 
Q 1284 391 1588 391 
Q 1994 391 2212 530 
Q 2431 669 2431 922 
Q 2431 1156 2273 1281 
Q 2116 1406 1581 1522 
L 1381 1569 
Q 847 1681 609 1914 
Q 372 2147 372 2553 
Q 372 3047 722 3315 
Q 1072 3584 1716 3584 
Q 2034 3584 2315 3537 
Q 2597 3491 2834 3397 
z
" transform="scale(0.015625)"/>
      <path id="DejaVuSans-28" d="M 1984 4856 
Q 1566 4138 1362 3434 
Q 1159 2731 1159 2009 
Q 1159 1288 1364 580 
Q 1569 -128 1984 -844 
L 1484 -844 
Q 1016 -109 783 600 
Q 550 1309 550 2009 
Q 550 2706 781 3412 
Q 1013 4119 1484 4856 
L 1984 4856 
z
" transform="scale(0.015625)"/>
      <path id="DejaVuSans-Oblique-6e" d="M 3566 2113 
L 3156 0 
L 2578 0 
L 2988 2091 
Q 3016 2238 3031 2350 
Q 3047 2463 3047 2528 
Q 3047 2791 2881 2937 
Q 2716 3084 2419 3084 
Q 1956 3084 1622 2776 
Q 1288 2469 1184 1941 
L 800 0 
L 225 0 
L 903 3500 
L 1478 3500 
L 1363 2950 
Q 1603 3253 1940 3418 
Q 2278 3584 2650 3584 
Q 3113 3584 3367 3334 
Q 3622 3084 3622 2631 
Q 3622 2519 3608 2391 
Q 3594 2263 3566 2113 
z
" transform="scale(0.015625)"/>
      <path id="DejaVuSans-29" d="M 513 4856 
L 1013 4856 
Q 1481 4119 1714 3412 
Q 1947 2706 1947 2009 
Q 1947 1309 1714 600 
Q 1481 -109 1013 -844 
L 513 -844 
Q 928 -128 1133 580 
Q 1338 1288 1338 2009 
Q 1338 2731 1133 3434 
Q 928 4138 513 4856 
z
" transform="scale(0.015625)"/>
      <path id="DejaVuSans-2c" d="M 750 794 
L 1409 794 
L 1409 256 
L 897 -744 
L 494 -744 
L 750 256 
L 750 794 
z
" transform="scale(0.015625)"/>
      <path id="DejaVuSans-69" d="M 603 3500 
L 1178 3500 
L 1178 0 
L 603 0 
L 603 3500 
z
M 603 4863 
L 1178 4863 
L 1178 4134 
L 603 4134 
L 603 4863 
z
" transform="scale(0.015625)"/>
      <path id="DejaVuSans-6e" d="M 3513 2113 
L 3513 0 
L 2938 0 
L 2938 2094 
Q 2938 2591 2744 2837 
Q 2550 3084 2163 3084 
Q 1697 3084 1428 2787 
Q 1159 2491 1159 1978 
L 1159 0 
L 581 0 
L 581 3500 
L 1159 3500 
L 1159 2956 
Q 1366 3272 1645 3428 
Q 1925 3584 2291 3584 
Q 2894 3584 3203 3211 
Q 3513 2838 3513 2113 
z
" transform="scale(0.015625)"/>
      <path id="DejaVuSans-3e" d="M 678 3150 
L 678 3719 
L 4684 2266 
L 4684 1747 
L 678 294 
L 678 863 
L 3897 2003 
L 678 3150 
z
" transform="scale(0.015625)"/>
      <path id="DejaVuSans-34" d="M 2419 4116 
L 825 1625 
L 2419 1625 
L 2419 4116 
z
M 2253 4666 
L 3047 4666 
L 3047 1625 
L 3713 1625 
L 3713 1100 
L 3047 1100 
L 3047 0 
L 2419 0 
L 2419 1100 
L 313 1100 
L 313 1709 
L 2253 4666 
z
" transform="scale(0.015625)"/>
     </defs>
     <use xlink:href="#DejaVuSans-Oblique-78" transform="translate(0 0.782813)"/>
     <use xlink:href="#DejaVuSans-3d" transform="translate(78.662109 0.782813)"/>
     <use xlink:href="#DejaVuSans-Oblique-74" transform="translate(181.933594 0.782813)"/>
     <use xlink:href="#DejaVuSans-2b" transform="translate(240.625 0.782813)"/>
     <use xlink:href="#DejaVuSans-63" transform="translate(343.896484 53.810938) scale(0.7)"/>
     <use xlink:href="#DejaVuSans-6f" transform="translate(382.382812 53.810938) scale(0.7)"/>
     <use xlink:href="#DejaVuSans-73" transform="translate(425.209961 53.810938) scale(0.7)"/>
     <use xlink:href="#DejaVuSans-28" transform="translate(461.679688 53.810938) scale(0.7)"/>
     <use xlink:href="#DejaVuSans-Oblique-6e" transform="translate(488.989258 53.810938) scale(0.7)"/>
     <use xlink:href="#DejaVuSans-Oblique-74" transform="translate(533.354492 53.810938) scale(0.7)"/>
     <use xlink:href="#DejaVuSans-29" transform="translate(560.800781 53.810938) scale(0.7)"/>
     <use xlink:href="#DejaVuSans-Oblique-74" transform="translate(451.896484 -35.823437) scale(0.7)"/>
     <use xlink:href="#DejaVuSans-2c" transform="translate(600.610352 0.782813)"/>
     <use xlink:href="#DejaVuSans-Oblique-79" transform="translate(651.879883 0.782813)"/>
     <use xlink:href="#DejaVuSans-3d" transform="translate(730.541992 0.782813)"/>
     <use xlink:href="#DejaVuSans-Oblique-74" transform="translate(833.813477 0.782813)"/>
     <use xlink:href="#DejaVuSans-2b" transform="translate(892.504883 0.782813)"/>
     <use xlink:href="#DejaVuSans-73" transform="translate(995.776367 53.810938) scale(0.7)"/>
     <use xlink:href="#DejaVuSans-69" transform="translate(1032.246094 53.810938) scale(0.7)"/>
     <use xlink:href="#DejaVuSans-6e" transform="translate(1051.694336 53.810938) scale(0.7)"/>
     <use xlink:href="#DejaVuSans-28" transform="translate(1096.05957 53.810938) scale(0.7)"/>
     <use xlink:href="#DejaVuSans-Oblique-6e" transform="translate(1123.369141 53.810938) scale(0.7)"/>
     <use xlink:href="#DejaVuSans-Oblique-74" transform="translate(1167.734375 53.810938) scale(0.7)"/>
     <use xlink:href="#DejaVuSans-29" transform="translate(1195.180664 53.810938) scale(0.7)"/>
     <use xlink:href="#DejaVuSans-Oblique-74" transform="translate(1095.776367 -35.823437) scale(0.7)"/>
     <use xlink:href="#DejaVuSans-2c" transform="translate(1234.990234 0.782813)"/>
     <use xlink:href="#DejaVuSans-Oblique-74" transform="translate(1286.259766 0.782813)"/>
     <use xlink:href="#DejaVuSans-3e" transform="translate(1344.951172 0.782813)"/>
     <use xlink:href="#DejaVuSans-30" transform="translate(1448.222656 0.782813)"/>
     <use xlink:href="#DejaVuSans-2c" transform="translate(1511.845703 0.782813)"/>
     <use xlink:href="#DejaVuSans-Oblique-6e" transform="translate(1563.115234 0.782813)"/>
     <use xlink:href="#DejaVuSans-3d" transform="translate(1645.976562 0.782813)"/>
     <use xlink:href="#DejaVuSans-31" transform="translate(1749.248047 0.782813)"/>
     <use xlink:href="#DejaVuSans-34" transform="translate(1812.871094 0.782813)"/>
     <path d="M 343.896484 19.579688 
L 343.896484 25.829688 
L 588.110352 25.829688 
L 588.110352 19.579688 
L 343.896484 19.579688 
z
"/>
     <path d="M 995.776367 19.579688 
L 995.776367 25.829688 
L 1222.490234 25.829688 
L 1222.490234 19.579688 
L 995.776367 19.579688 
z
"/>
    </g>
   </g>
  </g>
 </g>
 <defs>
  <clipPath id="p93e80ac395">
   <rect x="94.876795" y="41.472" width="271.04641" height="262.656"/>
  </clipPath>
 </defs>
</svg>
